{
 "cells": [
  {
   "cell_type": "code",
   "execution_count": 1,
   "metadata": {},
   "outputs": [
    {
     "data": {
      "text/html": [
       "<style>.container { width:100% !important; }</style>"
      ],
      "text/plain": [
       "<IPython.core.display.HTML object>"
      ]
     },
     "metadata": {},
     "output_type": "display_data"
    }
   ],
   "source": [
    "from IPython.display import display, HTML\n",
    "display(HTML(\"<style>.container { width:100% !important; }</style>\"))"
   ]
  },
  {
   "cell_type": "code",
   "execution_count": 2,
   "metadata": {},
   "outputs": [],
   "source": [
    "fName1=\"A\"\n",
    "fName2=\"B\""
   ]
  },
  {
   "cell_type": "code",
   "execution_count": 3,
   "metadata": {},
   "outputs": [],
   "source": [
    "import subprocess\n",
    "\n",
    "def get_fps(video_path):\n",
    "    cmd = [\"ffprobe\", \n",
    "           \"-v\", \"error\", \n",
    "           \"-select_streams\", \"v:0\", \n",
    "           \"-show_entries\", \"stream=r_frame_rate\", \n",
    "           \"-of\", \"default=noprint_wrappers=1:nokey=1\", \n",
    "           video_path]\n",
    "\n",
    "    process = subprocess.Popen(cmd, stdout=subprocess.PIPE, stderr=subprocess.PIPE)\n",
    "    out, err = process.communicate()\n",
    "\n",
    "    if err:\n",
    "        raise Exception(err.decode('utf-8'))\n",
    "\n",
    "    fps_string = out.decode('utf-8').strip()\n",
    "    if \"/\" in fps_string:\n",
    "        num, den = fps_string.split(\"/\")\n",
    "        return float(num) / float(den)\n",
    "    else:\n",
    "        return float(fps_string)"
   ]
  },
  {
   "cell_type": "code",
   "execution_count": 4,
   "metadata": {},
   "outputs": [
    {
     "name": "stdout",
     "output_type": "stream",
     "text": [
      "FPS: 30.0\n"
     ]
    }
   ],
   "source": [
    "video_path = fName1+'.mov'\n",
    "fps = get_fps(video_path)\n",
    "print(\"FPS:\", fps)"
   ]
  },
  {
   "cell_type": "code",
   "execution_count": 5,
   "metadata": {},
   "outputs": [
    {
     "name": "stdout",
     "output_type": "stream",
     "text": [
      "FPS: 30.0\n"
     ]
    }
   ],
   "source": [
    "video_path = fName2+'.mov'\n",
    "fps = get_fps(video_path)\n",
    "print(\"FPS:\", fps)"
   ]
  },
  {
   "cell_type": "code",
   "execution_count": 6,
   "metadata": {
    "scrolled": false
   },
   "outputs": [],
   "source": [
    "def run_ffmpeg(input_file, output_file, **kwargs):\n",
    "    \"\"\"Runs FFmpeg with the given input file, output file, and arguments.\"\"\"\n",
    "\n",
    "    # Build the FFmpeg command\n",
    "    command = ['ffmpeg', '-i', input_file]\n",
    "\n",
    "    # Add any additional arguments\n",
    "    for key, value in kwargs.items():\n",
    "        if value is not None:\n",
    "            command.extend(['-' + key, str(value)])\n",
    "\n",
    "    command.append(output_file)\n",
    "\n",
    "    # Execute the command\n",
    "    subprocess.run(command)"
   ]
  },
  {
   "cell_type": "code",
   "execution_count": 7,
   "metadata": {},
   "outputs": [
    {
     "name": "stderr",
     "output_type": "stream",
     "text": [
      "ffmpeg version 7.0.1 Copyright (c) 2000-2024 the FFmpeg developers\n",
      "  built with Apple clang version 15.0.0 (clang-1500.3.9.4)\n",
      "  configuration: --prefix=/opt/homebrew/Cellar/ffmpeg/7.0.1 --enable-shared --enable-pthreads --enable-version3 --cc=clang --host-cflags= --host-ldflags='-Wl,-ld_classic' --enable-ffplay --enable-gnutls --enable-gpl --enable-libaom --enable-libaribb24 --enable-libbluray --enable-libdav1d --enable-libharfbuzz --enable-libjxl --enable-libmp3lame --enable-libopus --enable-librav1e --enable-librist --enable-librubberband --enable-libsnappy --enable-libsrt --enable-libssh --enable-libsvtav1 --enable-libtesseract --enable-libtheora --enable-libvidstab --enable-libvmaf --enable-libvorbis --enable-libvpx --enable-libwebp --enable-libx264 --enable-libx265 --enable-libxml2 --enable-libxvid --enable-lzma --enable-libfontconfig --enable-libfreetype --enable-frei0r --enable-libass --enable-libopencore-amrnb --enable-libopencore-amrwb --enable-libopenjpeg --enable-libspeex --enable-libsoxr --enable-libzmq --enable-libzimg --disable-libjack --disable-indev=jack --enable-videotoolbox --enable-audiotoolbox --enable-neon\n",
      "  libavutil      59.  8.100 / 59.  8.100\n",
      "  libavcodec     61.  3.100 / 61.  3.100\n",
      "  libavformat    61.  1.100 / 61.  1.100\n",
      "  libavdevice    61.  1.100 / 61.  1.100\n",
      "  libavfilter    10.  1.100 / 10.  1.100\n",
      "  libswscale      8.  1.100 /  8.  1.100\n",
      "  libswresample   5.  1.100 /  5.  1.100\n",
      "  libpostproc    58.  1.100 / 58.  1.100\n",
      "Input #0, mov,mp4,m4a,3gp,3g2,mj2, from 'A.mov':\n",
      "  Metadata:\n",
      "    major_brand     : qt  \n",
      "    minor_version   : 0\n",
      "    compatible_brands: qt  \n",
      "    creation_time   : 2024-12-30T03:02:52.000000Z\n",
      "    com.apple.quicktime.creationdate: 2022-11-04T18:13:50-07:00\n",
      "  Duration: 00:00:09.31, start: 0.000000, bitrate: 6792 kb/s\n",
      "  Stream #0:0[0x1](und): Video: h264 (Main) (avc1 / 0x31637661), yuvj420p(pc, smpte170m/smpte432/bt709, progressive), 656x1232, 6723 kb/s, 30.01 fps, 30 tbr, 600 tbn (default)\n",
      "      Metadata:\n",
      "        creation_time   : 2024-12-30T03:02:52.000000Z\n",
      "        handler_name    : Core Media Video\n",
      "        vendor_id       : [0][0][0][0]\n",
      "        encoder         : H.264\n",
      "  Stream #0:1[0x2](und): Audio: aac (LC) (mp4a / 0x6134706D), 44100 Hz, mono, fltp, 97 kb/s (default)\n",
      "      Metadata:\n",
      "        creation_time   : 2024-12-30T03:02:52.000000Z\n",
      "        handler_name    : Core Media Audio\n",
      "        vendor_id       : [0][0][0][0]\n",
      "Stream mapping:\n",
      "  Stream #0:0 -> #0:0 (h264 (native) -> h264 (libx264))\n",
      "  Stream #0:1 -> #0:1 (aac (native) -> aac (native))\n",
      "Press [q] to stop, [?] for help\n",
      "[libx264 @ 0x13b605520] using cpu capabilities: ARMv8 NEON\n",
      "[libx264 @ 0x13b605520] profile High, level 3.1, 4:2:0, 8-bit\n",
      "[libx264 @ 0x13b605520] 264 - core 164 r3108 31e19f9 - H.264/MPEG-4 AVC codec - Copyleft 2003-2023 - http://www.videolan.org/x264.html - options: cabac=1 ref=3 deblock=1:0:0 analyse=0x3:0x113 me=hex subme=7 psy=1 psy_rd=1.00:0.00 mixed_ref=1 me_range=16 chroma_me=1 trellis=1 8x8dct=1 cqm=0 deadzone=21,11 fast_pskip=1 chroma_qp_offset=-2 threads=15 lookahead_threads=2 sliced_threads=0 nr=0 decimate=1 interlaced=0 bluray_compat=0 constrained_intra=0 bframes=3 b_pyramid=2 b_adapt=1 b_bias=0 direct=1 weightb=1 open_gop=0 weightp=2 keyint=250 keyint_min=25 scenecut=40 intra_refresh=0 rc_lookahead=40 rc=crf mbtree=1 crf=23.0 qcomp=0.60 qpmin=0 qpmax=69 qpstep=4 ip_ratio=1.40 aq=1:1.00\n",
      "Output #0, mp4, to 'A.mp4':\n",
      "  Metadata:\n",
      "    major_brand     : qt  \n",
      "    minor_version   : 0\n",
      "    compatible_brands: qt  \n",
      "    com.apple.quicktime.creationdate: 2022-11-04T18:13:50-07:00\n",
      "    encoder         : Lavf61.1.100\n",
      "  Stream #0:0(und): Video: h264 (avc1 / 0x31637661), yuvj420p(pc, smpte170m/smpte432/bt709, progressive), 656x1232, q=2-31, 30 fps, 15360 tbn (default)\n",
      "      Metadata:\n",
      "        creation_time   : 2024-12-30T03:02:52.000000Z\n",
      "        handler_name    : Core Media Video\n",
      "        vendor_id       : [0][0][0][0]\n",
      "        encoder         : Lavc61.3.100 libx264\n",
      "      Side data:\n",
      "        cpb: bitrate max/min/avg: 0/0/0 buffer size: 0 vbv_delay: N/A\n",
      "  Stream #0:1(und): Audio: aac (LC) (mp4a / 0x6134706D), 44100 Hz, mono, fltp, 69 kb/s (default)\n",
      "      Metadata:\n",
      "        creation_time   : 2024-12-30T03:02:52.000000Z\n",
      "        handler_name    : Core Media Audio\n",
      "        vendor_id       : [0][0][0][0]\n",
      "        encoder         : Lavc61.3.100 aac\n",
      "[out#0/mp4 @ 0x6000009600c0] video:1917KiB audio:77KiB subtitle:0KiB other streams:0KiB global headers:0KiB muxing overhead: 0.554314%\n",
      "frame=  278 fps=233 q=-1.0 Lsize=    2006KiB time=00:00:09.20 bitrate=1785.8kbits/s speed=7.71x    \n",
      "[libx264 @ 0x13b605520] frame I:2     Avg QP:20.82  size: 48782\n",
      "[libx264 @ 0x13b605520] frame P:88    Avg QP:23.02  size: 14154\n",
      "[libx264 @ 0x13b605520] frame B:188   Avg QP:25.72  size:  3296\n",
      "[libx264 @ 0x13b605520] consecutive B-frames:  1.8% 21.6%  7.6% 69.1%\n",
      "[libx264 @ 0x13b605520] mb I  I16..4: 29.0% 46.5% 24.5%\n",
      "[libx264 @ 0x13b605520] mb P  I16..4: 13.4% 12.2%  1.5%  P16..4: 42.2% 12.1%  6.8%  0.0%  0.0%    skip:11.9%\n",
      "[libx264 @ 0x13b605520] mb B  I16..4:  1.3%  1.1%  0.0%  B16..8: 36.9%  2.5%  0.4%  direct: 4.1%  skip:53.6%  L0:42.5% L1:54.3% BI: 3.1%\n",
      "[libx264 @ 0x13b605520] 8x8 transform intra:45.0% inter:74.6%\n",
      "[libx264 @ 0x13b605520] coded y,uvDC,uvAC intra: 20.7% 62.3% 10.2% inter: 10.7% 21.5% 0.2%\n",
      "[libx264 @ 0x13b605520] i16 v,h,dc,p: 17% 47% 15% 21%\n",
      "[libx264 @ 0x13b605520] i8 v,h,dc,ddl,ddr,vr,hd,vl,hu: 17% 28% 42%  2%  2%  2%  3%  2%  2%\n",
      "[libx264 @ 0x13b605520] i4 v,h,dc,ddl,ddr,vr,hd,vl,hu: 20% 34% 16%  3%  5%  4%  9%  3%  7%\n",
      "[libx264 @ 0x13b605520] i8c dc,h,v,p: 42% 37% 13%  8%\n",
      "[libx264 @ 0x13b605520] Weighted P-Frames: Y:10.2% UV:4.5%\n",
      "[libx264 @ 0x13b605520] ref P L0: 74.9% 14.0%  8.7%  2.2%  0.1%\n",
      "[libx264 @ 0x13b605520] ref B L0: 94.6%  4.4%  1.0%\n",
      "[libx264 @ 0x13b605520] ref B L1: 98.7%  1.3%\n",
      "[libx264 @ 0x13b605520] kb/s:1694.45\n",
      "[aac @ 0x13b666950] Qavg: 121.098\n"
     ]
    }
   ],
   "source": [
    "run_ffmpeg(fName1+'.mov', fName1+'.mp4', vcodec='libx264')"
   ]
  },
  {
   "cell_type": "code",
   "execution_count": 8,
   "metadata": {},
   "outputs": [
    {
     "name": "stderr",
     "output_type": "stream",
     "text": [
      "ffmpeg version 7.0.1 Copyright (c) 2000-2024 the FFmpeg developers\n",
      "  built with Apple clang version 15.0.0 (clang-1500.3.9.4)\n",
      "  configuration: --prefix=/opt/homebrew/Cellar/ffmpeg/7.0.1 --enable-shared --enable-pthreads --enable-version3 --cc=clang --host-cflags= --host-ldflags='-Wl,-ld_classic' --enable-ffplay --enable-gnutls --enable-gpl --enable-libaom --enable-libaribb24 --enable-libbluray --enable-libdav1d --enable-libharfbuzz --enable-libjxl --enable-libmp3lame --enable-libopus --enable-librav1e --enable-librist --enable-librubberband --enable-libsnappy --enable-libsrt --enable-libssh --enable-libsvtav1 --enable-libtesseract --enable-libtheora --enable-libvidstab --enable-libvmaf --enable-libvorbis --enable-libvpx --enable-libwebp --enable-libx264 --enable-libx265 --enable-libxml2 --enable-libxvid --enable-lzma --enable-libfontconfig --enable-libfreetype --enable-frei0r --enable-libass --enable-libopencore-amrnb --enable-libopencore-amrwb --enable-libopenjpeg --enable-libspeex --enable-libsoxr --enable-libzmq --enable-libzimg --disable-libjack --disable-indev=jack --enable-videotoolbox --enable-audiotoolbox --enable-neon\n",
      "  libavutil      59.  8.100 / 59.  8.100\n",
      "  libavcodec     61.  3.100 / 61.  3.100\n",
      "  libavformat    61.  1.100 / 61.  1.100\n",
      "  libavdevice    61.  1.100 / 61.  1.100\n",
      "  libavfilter    10.  1.100 / 10.  1.100\n",
      "  libswscale      8.  1.100 /  8.  1.100\n",
      "  libswresample   5.  1.100 /  5.  1.100\n",
      "  libpostproc    58.  1.100 / 58.  1.100\n",
      "Input #0, mov,mp4,m4a,3gp,3g2,mj2, from 'B.mov':\n",
      "  Metadata:\n",
      "    major_brand     : qt  \n",
      "    minor_version   : 0\n",
      "    compatible_brands: qt  \n",
      "    creation_time   : 2022-12-26T02:57:12.000000Z\n",
      "    com.apple.quicktime.creationdate: 2022-01-22T11:43:43-06:00\n",
      "  Duration: 00:00:09.28, start: 0.000000, bitrate: 6819 kb/s\n",
      "  Stream #0:0[0x1](und): Video: h264 (Main) (avc1 / 0x31637661), yuvj420p(pc, smpte170m/smpte432/bt709, progressive), 656x1232, 6723 kb/s, 30.01 fps, 30 tbr, 600 tbn (default)\n",
      "      Metadata:\n",
      "        creation_time   : 2022-12-26T02:57:12.000000Z\n",
      "        handler_name    : Core Media Video\n",
      "        vendor_id       : [0][0][0][0]\n",
      "        encoder         : H.264\n",
      "  Stream #0:1[0x2](und): Audio: aac (LC) (mp4a / 0x6134706D), 44100 Hz, mono, fltp, 100 kb/s (default)\n",
      "      Metadata:\n",
      "        creation_time   : 2022-12-26T02:57:12.000000Z\n",
      "        handler_name    : Core Media Audio\n",
      "        vendor_id       : [0][0][0][0]\n",
      "Stream mapping:\n",
      "  Stream #0:0 -> #0:0 (h264 (native) -> h264 (libx264))\n",
      "  Stream #0:1 -> #0:1 (aac (native) -> aac (native))\n",
      "Press [q] to stop, [?] for help\n",
      "[libx264 @ 0x12c706800] using cpu capabilities: ARMv8 NEON\n",
      "[libx264 @ 0x12c706800] profile High, level 3.1, 4:2:0, 8-bit\n",
      "[libx264 @ 0x12c706800] 264 - core 164 r3108 31e19f9 - H.264/MPEG-4 AVC codec - Copyleft 2003-2023 - http://www.videolan.org/x264.html - options: cabac=1 ref=3 deblock=1:0:0 analyse=0x3:0x113 me=hex subme=7 psy=1 psy_rd=1.00:0.00 mixed_ref=1 me_range=16 chroma_me=1 trellis=1 8x8dct=1 cqm=0 deadzone=21,11 fast_pskip=1 chroma_qp_offset=-2 threads=15 lookahead_threads=2 sliced_threads=0 nr=0 decimate=1 interlaced=0 bluray_compat=0 constrained_intra=0 bframes=3 b_pyramid=2 b_adapt=1 b_bias=0 direct=1 weightb=1 open_gop=0 weightp=2 keyint=250 keyint_min=25 scenecut=40 intra_refresh=0 rc_lookahead=40 rc=crf mbtree=1 crf=23.0 qcomp=0.60 qpmin=0 qpmax=69 qpstep=4 ip_ratio=1.40 aq=1:1.00\n",
      "Output #0, mp4, to 'B.mp4':\n",
      "  Metadata:\n",
      "    major_brand     : qt  \n",
      "    minor_version   : 0\n",
      "    compatible_brands: qt  \n",
      "    com.apple.quicktime.creationdate: 2022-01-22T11:43:43-06:00\n",
      "    encoder         : Lavf61.1.100\n",
      "  Stream #0:0(und): Video: h264 (avc1 / 0x31637661), yuvj420p(pc, smpte170m/smpte432/bt709, progressive), 656x1232, q=2-31, 30 fps, 15360 tbn (default)\n",
      "      Metadata:\n",
      "        creation_time   : 2022-12-26T02:57:12.000000Z\n",
      "        handler_name    : Core Media Video\n",
      "        vendor_id       : [0][0][0][0]\n",
      "        encoder         : Lavc61.3.100 libx264\n",
      "      Side data:\n",
      "        cpb: bitrate max/min/avg: 0/0/0 buffer size: 0 vbv_delay: N/A\n",
      "  Stream #0:1(und): Audio: aac (LC) (mp4a / 0x6134706D), 44100 Hz, mono, fltp, 69 kb/s (default)\n",
      "      Metadata:\n",
      "        creation_time   : 2022-12-26T02:57:12.000000Z\n",
      "        handler_name    : Core Media Audio\n",
      "        vendor_id       : [0][0][0][0]\n",
      "        encoder         : Lavc61.3.100 aac\n",
      "[out#0/mp4 @ 0x6000025e4000] video:3381KiB audio:78KiB subtitle:0KiB other streams:0KiB global headers:0KiB muxing overhead: 0.319694%\n",
      "frame=  278 fps=175 q=-1.0 Lsize=    3470KiB time=00:00:09.20 bitrate=3090.2kbits/s speed=5.78x    \n",
      "[libx264 @ 0x12c706800] frame I:10    Avg QP:22.84  size: 25546\n",
      "[libx264 @ 0x12c706800] frame P:80    Avg QP:25.21  size: 20250\n",
      "[libx264 @ 0x12c706800] frame B:188   Avg QP:26.71  size:  8437\n",
      "[libx264 @ 0x12c706800] consecutive B-frames:  6.1%  8.6%  7.6% 77.7%\n",
      "[libx264 @ 0x12c706800] mb I  I16..4: 13.8% 67.3% 19.0%\n",
      "[libx264 @ 0x12c706800] mb P  I16..4:  9.9% 41.3%  7.4%  P16..4: 28.3%  7.6%  2.7%  0.0%  0.0%    skip: 2.8%\n",
      "[libx264 @ 0x12c706800] mb B  I16..4:  2.2%  6.3%  1.0%  B16..8: 40.6%  6.1%  1.0%  direct: 6.2%  skip:36.7%  L0:47.7% L1:45.4% BI: 6.9%\n",
      "[libx264 @ 0x12c706800] 8x8 transform intra:69.2% inter:81.0%\n",
      "[libx264 @ 0x12c706800] coded y,uvDC,uvAC intra: 56.4% 36.5% 0.6% inter: 23.7% 16.1% 0.0%\n",
      "[libx264 @ 0x12c706800] i16 v,h,dc,p: 17% 16% 12% 55%\n",
      "[libx264 @ 0x12c706800] i8 v,h,dc,ddl,ddr,vr,hd,vl,hu: 21% 13% 18%  5% 11% 13%  7%  6%  5%\n",
      "[libx264 @ 0x12c706800] i4 v,h,dc,ddl,ddr,vr,hd,vl,hu: 25% 10% 14%  5% 15% 18%  6%  5%  3%\n",
      "[libx264 @ 0x12c706800] i8c dc,h,v,p: 55% 19% 22%  4%\n",
      "[libx264 @ 0x12c706800] Weighted P-Frames: Y:6.2% UV:1.2%\n",
      "[libx264 @ 0x12c706800] ref P L0: 60.4% 13.8% 16.7%  8.5%  0.6%\n",
      "[libx264 @ 0x12c706800] ref B L0: 91.5%  6.4%  2.1%\n",
      "[libx264 @ 0x12c706800] ref B L1: 98.1%  1.9%\n",
      "[libx264 @ 0x12c706800] kb/s:2988.42\n",
      "[aac @ 0x12c76bb00] Qavg: 160.382\n"
     ]
    }
   ],
   "source": [
    "run_ffmpeg(fName2+'.mov', fName2+'.mp4', vcodec='libx264')"
   ]
  },
  {
   "cell_type": "code",
   "execution_count": 9,
   "metadata": {},
   "outputs": [
    {
     "name": "stdout",
     "output_type": "stream",
     "text": [
      "FPS: 30.0\n"
     ]
    }
   ],
   "source": [
    "video_path = fName1+'.mp4'\n",
    "fps = get_fps(video_path)\n",
    "print(\"FPS:\", fps)"
   ]
  },
  {
   "cell_type": "code",
   "execution_count": 10,
   "metadata": {},
   "outputs": [
    {
     "name": "stdout",
     "output_type": "stream",
     "text": [
      "FPS: 30.0\n"
     ]
    }
   ],
   "source": [
    "video_path = fName2+'.mp4'\n",
    "fps = get_fps(video_path)\n",
    "print(\"FPS:\", fps)"
   ]
  },
  {
   "cell_type": "code",
   "execution_count": 11,
   "metadata": {},
   "outputs": [
    {
     "name": "stdout",
     "output_type": "stream",
     "text": [
      "Creating imgFramesAB/frame100000.jpg\n",
      "Creating imgFramesAB/frame100002.jpg\n",
      "Creating imgFramesAB/frame100004.jpg\n",
      "Creating imgFramesAB/frame100006.jpg\n",
      "Creating imgFramesAB/frame100008.jpg\n",
      "Creating imgFramesAB/frame100010.jpg\n",
      "Creating imgFramesAB/frame100012.jpg\n",
      "Creating imgFramesAB/frame100014.jpg\n",
      "Creating imgFramesAB/frame100016.jpg\n",
      "Creating imgFramesAB/frame100018.jpg\n",
      "Creating imgFramesAB/frame100020.jpg\n",
      "Creating imgFramesAB/frame100022.jpg\n",
      "Creating imgFramesAB/frame100024.jpg\n",
      "Creating imgFramesAB/frame100026.jpg\n",
      "Creating imgFramesAB/frame100028.jpg\n",
      "Creating imgFramesAB/frame100030.jpg\n",
      "Creating imgFramesAB/frame100032.jpg\n",
      "Creating imgFramesAB/frame100034.jpg\n",
      "Creating imgFramesAB/frame100036.jpg\n",
      "Creating imgFramesAB/frame100038.jpg\n",
      "Creating imgFramesAB/frame100040.jpg\n",
      "Creating imgFramesAB/frame100042.jpg\n",
      "Creating imgFramesAB/frame100044.jpg\n",
      "Creating imgFramesAB/frame100046.jpg\n",
      "Creating imgFramesAB/frame100048.jpg\n",
      "Creating imgFramesAB/frame100050.jpg\n",
      "Creating imgFramesAB/frame100052.jpg\n",
      "Creating imgFramesAB/frame100054.jpg\n",
      "Creating imgFramesAB/frame100056.jpg\n",
      "Creating imgFramesAB/frame100058.jpg\n",
      "Creating imgFramesAB/frame100060.jpg\n",
      "Creating imgFramesAB/frame100062.jpg\n",
      "Creating imgFramesAB/frame100064.jpg\n",
      "Creating imgFramesAB/frame100066.jpg\n",
      "Creating imgFramesAB/frame100068.jpg\n",
      "Creating imgFramesAB/frame100070.jpg\n",
      "Creating imgFramesAB/frame100072.jpg\n",
      "Creating imgFramesAB/frame100074.jpg\n",
      "Creating imgFramesAB/frame100076.jpg\n",
      "Creating imgFramesAB/frame100078.jpg\n",
      "Creating imgFramesAB/frame100080.jpg\n",
      "Creating imgFramesAB/frame100082.jpg\n",
      "Creating imgFramesAB/frame100084.jpg\n",
      "Creating imgFramesAB/frame100086.jpg\n",
      "Creating imgFramesAB/frame100088.jpg\n",
      "Creating imgFramesAB/frame100090.jpg\n",
      "Creating imgFramesAB/frame100092.jpg\n",
      "Creating imgFramesAB/frame100094.jpg\n",
      "Creating imgFramesAB/frame100096.jpg\n",
      "Creating imgFramesAB/frame100098.jpg\n",
      "Creating imgFramesAB/frame100100.jpg\n",
      "Creating imgFramesAB/frame100102.jpg\n",
      "Creating imgFramesAB/frame100104.jpg\n",
      "Creating imgFramesAB/frame100106.jpg\n",
      "Creating imgFramesAB/frame100108.jpg\n",
      "Creating imgFramesAB/frame100110.jpg\n",
      "Creating imgFramesAB/frame100112.jpg\n",
      "Creating imgFramesAB/frame100114.jpg\n",
      "Creating imgFramesAB/frame100116.jpg\n",
      "Creating imgFramesAB/frame100118.jpg\n",
      "Creating imgFramesAB/frame100120.jpg\n",
      "Creating imgFramesAB/frame100122.jpg\n",
      "Creating imgFramesAB/frame100124.jpg\n",
      "Creating imgFramesAB/frame100126.jpg\n",
      "Creating imgFramesAB/frame100128.jpg\n",
      "Creating imgFramesAB/frame100130.jpg\n",
      "Creating imgFramesAB/frame100132.jpg\n",
      "Creating imgFramesAB/frame100134.jpg\n",
      "Creating imgFramesAB/frame100136.jpg\n",
      "Creating imgFramesAB/frame100138.jpg\n",
      "Creating imgFramesAB/frame100140.jpg\n",
      "Creating imgFramesAB/frame100142.jpg\n",
      "Creating imgFramesAB/frame100144.jpg\n",
      "Creating imgFramesAB/frame100146.jpg\n",
      "Creating imgFramesAB/frame100148.jpg\n",
      "Creating imgFramesAB/frame100150.jpg\n",
      "Creating imgFramesAB/frame100152.jpg\n",
      "Creating imgFramesAB/frame100154.jpg\n",
      "Creating imgFramesAB/frame100156.jpg\n",
      "Creating imgFramesAB/frame100158.jpg\n",
      "Creating imgFramesAB/frame100160.jpg\n",
      "Creating imgFramesAB/frame100162.jpg\n",
      "Creating imgFramesAB/frame100164.jpg\n",
      "Creating imgFramesAB/frame100166.jpg\n",
      "Creating imgFramesAB/frame100168.jpg\n",
      "Creating imgFramesAB/frame100170.jpg\n",
      "Creating imgFramesAB/frame100172.jpg\n",
      "Creating imgFramesAB/frame100174.jpg\n",
      "Creating imgFramesAB/frame100176.jpg\n",
      "Creating imgFramesAB/frame100178.jpg\n",
      "Creating imgFramesAB/frame100180.jpg\n",
      "Creating imgFramesAB/frame100182.jpg\n",
      "Creating imgFramesAB/frame100184.jpg\n",
      "Creating imgFramesAB/frame100186.jpg\n",
      "Creating imgFramesAB/frame100188.jpg\n",
      "Creating imgFramesAB/frame100190.jpg\n",
      "Creating imgFramesAB/frame100192.jpg\n",
      "Creating imgFramesAB/frame100194.jpg\n",
      "Creating imgFramesAB/frame100196.jpg\n",
      "Creating imgFramesAB/frame100198.jpg\n",
      "Creating imgFramesAB/frame100200.jpg\n",
      "Creating imgFramesAB/frame100202.jpg\n",
      "Creating imgFramesAB/frame100204.jpg\n",
      "Creating imgFramesAB/frame100206.jpg\n",
      "Creating imgFramesAB/frame100208.jpg\n",
      "Creating imgFramesAB/frame100210.jpg\n",
      "Creating imgFramesAB/frame100212.jpg\n",
      "Creating imgFramesAB/frame100214.jpg\n",
      "Creating imgFramesAB/frame100216.jpg\n",
      "Creating imgFramesAB/frame100218.jpg\n",
      "Creating imgFramesAB/frame100220.jpg\n",
      "Creating imgFramesAB/frame100222.jpg\n",
      "Creating imgFramesAB/frame100224.jpg\n",
      "Creating imgFramesAB/frame100226.jpg\n",
      "Creating imgFramesAB/frame100228.jpg\n",
      "Creating imgFramesAB/frame100230.jpg\n",
      "Creating imgFramesAB/frame100232.jpg\n",
      "Creating imgFramesAB/frame100234.jpg\n",
      "Creating imgFramesAB/frame100236.jpg\n",
      "Creating imgFramesAB/frame100238.jpg\n",
      "Creating imgFramesAB/frame100240.jpg\n",
      "Creating imgFramesAB/frame100242.jpg\n",
      "Creating imgFramesAB/frame100244.jpg\n",
      "Creating imgFramesAB/frame100246.jpg\n",
      "Creating imgFramesAB/frame100248.jpg\n",
      "Creating imgFramesAB/frame100250.jpg\n",
      "Creating imgFramesAB/frame100252.jpg\n",
      "Creating imgFramesAB/frame100254.jpg\n",
      "Creating imgFramesAB/frame100256.jpg\n",
      "Creating imgFramesAB/frame100258.jpg\n",
      "Creating imgFramesAB/frame100260.jpg\n",
      "Creating imgFramesAB/frame100262.jpg\n",
      "Creating imgFramesAB/frame100264.jpg\n",
      "Creating imgFramesAB/frame100266.jpg\n",
      "Creating imgFramesAB/frame100268.jpg\n",
      "Creating imgFramesAB/frame100270.jpg\n",
      "Creating imgFramesAB/frame100272.jpg\n",
      "Creating imgFramesAB/frame100274.jpg\n",
      "Creating imgFramesAB/frame100276.jpg\n",
      "Creating imgFramesAB/frame100278.jpg\n",
      "Creating imgFramesAB/frame100280.jpg\n",
      "Creating imgFramesAB/frame100282.jpg\n",
      "Creating imgFramesAB/frame100284.jpg\n",
      "Creating imgFramesAB/frame100286.jpg\n",
      "Creating imgFramesAB/frame100288.jpg\n",
      "Creating imgFramesAB/frame100290.jpg\n",
      "Creating imgFramesAB/frame100292.jpg\n",
      "Creating imgFramesAB/frame100294.jpg\n",
      "Creating imgFramesAB/frame100296.jpg\n",
      "Creating imgFramesAB/frame100298.jpg\n",
      "Creating imgFramesAB/frame100300.jpg\n",
      "Creating imgFramesAB/frame100302.jpg\n",
      "Creating imgFramesAB/frame100304.jpg\n",
      "Creating imgFramesAB/frame100306.jpg\n",
      "Creating imgFramesAB/frame100308.jpg\n",
      "Creating imgFramesAB/frame100310.jpg\n",
      "Creating imgFramesAB/frame100312.jpg\n",
      "Creating imgFramesAB/frame100314.jpg\n",
      "Creating imgFramesAB/frame100316.jpg\n",
      "Creating imgFramesAB/frame100318.jpg\n",
      "Creating imgFramesAB/frame100320.jpg\n",
      "Creating imgFramesAB/frame100322.jpg\n",
      "Creating imgFramesAB/frame100324.jpg\n",
      "Creating imgFramesAB/frame100326.jpg\n",
      "Creating imgFramesAB/frame100328.jpg\n",
      "Creating imgFramesAB/frame100330.jpg\n",
      "Creating imgFramesAB/frame100332.jpg\n",
      "Creating imgFramesAB/frame100334.jpg\n",
      "Creating imgFramesAB/frame100336.jpg\n",
      "Creating imgFramesAB/frame100338.jpg\n",
      "Creating imgFramesAB/frame100340.jpg\n",
      "Creating imgFramesAB/frame100342.jpg\n",
      "Creating imgFramesAB/frame100344.jpg\n",
      "Creating imgFramesAB/frame100346.jpg\n",
      "Creating imgFramesAB/frame100348.jpg\n",
      "Creating imgFramesAB/frame100350.jpg\n",
      "Creating imgFramesAB/frame100352.jpg\n",
      "Creating imgFramesAB/frame100354.jpg\n",
      "Creating imgFramesAB/frame100356.jpg\n",
      "Creating imgFramesAB/frame100358.jpg\n",
      "Creating imgFramesAB/frame100360.jpg\n",
      "Creating imgFramesAB/frame100362.jpg\n",
      "Creating imgFramesAB/frame100364.jpg\n",
      "Creating imgFramesAB/frame100366.jpg\n",
      "Creating imgFramesAB/frame100368.jpg\n",
      "Creating imgFramesAB/frame100370.jpg\n",
      "Creating imgFramesAB/frame100372.jpg\n",
      "Creating imgFramesAB/frame100374.jpg\n",
      "Creating imgFramesAB/frame100376.jpg\n",
      "Creating imgFramesAB/frame100378.jpg\n",
      "Creating imgFramesAB/frame100380.jpg\n",
      "Creating imgFramesAB/frame100382.jpg\n",
      "Creating imgFramesAB/frame100384.jpg\n",
      "Creating imgFramesAB/frame100386.jpg\n",
      "Creating imgFramesAB/frame100388.jpg\n",
      "Creating imgFramesAB/frame100390.jpg\n",
      "Creating imgFramesAB/frame100392.jpg\n",
      "Creating imgFramesAB/frame100394.jpg\n",
      "Creating imgFramesAB/frame100396.jpg\n",
      "Creating imgFramesAB/frame100398.jpg\n",
      "Creating imgFramesAB/frame100400.jpg\n",
      "Creating imgFramesAB/frame100402.jpg\n",
      "Creating imgFramesAB/frame100404.jpg\n",
      "Creating imgFramesAB/frame100406.jpg\n",
      "Creating imgFramesAB/frame100408.jpg\n",
      "Creating imgFramesAB/frame100410.jpg\n",
      "Creating imgFramesAB/frame100412.jpg\n",
      "Creating imgFramesAB/frame100414.jpg\n",
      "Creating imgFramesAB/frame100416.jpg\n",
      "Creating imgFramesAB/frame100418.jpg\n",
      "Creating imgFramesAB/frame100420.jpg\n",
      "Creating imgFramesAB/frame100422.jpg\n",
      "Creating imgFramesAB/frame100424.jpg\n",
      "Creating imgFramesAB/frame100426.jpg\n",
      "Creating imgFramesAB/frame100428.jpg\n",
      "Creating imgFramesAB/frame100430.jpg\n",
      "Creating imgFramesAB/frame100432.jpg\n",
      "Creating imgFramesAB/frame100434.jpg\n",
      "Creating imgFramesAB/frame100436.jpg\n",
      "Creating imgFramesAB/frame100438.jpg\n",
      "Creating imgFramesAB/frame100440.jpg\n",
      "Creating imgFramesAB/frame100442.jpg\n"
     ]
    },
    {
     "name": "stdout",
     "output_type": "stream",
     "text": [
      "Creating imgFramesAB/frame100444.jpg\n",
      "Creating imgFramesAB/frame100446.jpg\n",
      "Creating imgFramesAB/frame100448.jpg\n",
      "Creating imgFramesAB/frame100450.jpg\n",
      "Creating imgFramesAB/frame100452.jpg\n",
      "Creating imgFramesAB/frame100454.jpg\n",
      "Creating imgFramesAB/frame100456.jpg\n",
      "Creating imgFramesAB/frame100458.jpg\n",
      "Creating imgFramesAB/frame100460.jpg\n",
      "Creating imgFramesAB/frame100462.jpg\n",
      "Creating imgFramesAB/frame100464.jpg\n",
      "Creating imgFramesAB/frame100466.jpg\n",
      "Creating imgFramesAB/frame100468.jpg\n",
      "Creating imgFramesAB/frame100470.jpg\n",
      "Creating imgFramesAB/frame100472.jpg\n",
      "Creating imgFramesAB/frame100474.jpg\n",
      "Creating imgFramesAB/frame100476.jpg\n",
      "Creating imgFramesAB/frame100478.jpg\n",
      "Creating imgFramesAB/frame100480.jpg\n",
      "Creating imgFramesAB/frame100482.jpg\n",
      "Creating imgFramesAB/frame100484.jpg\n",
      "Creating imgFramesAB/frame100486.jpg\n",
      "Creating imgFramesAB/frame100488.jpg\n",
      "Creating imgFramesAB/frame100490.jpg\n",
      "Creating imgFramesAB/frame100492.jpg\n",
      "Creating imgFramesAB/frame100494.jpg\n",
      "Creating imgFramesAB/frame100496.jpg\n",
      "Creating imgFramesAB/frame100498.jpg\n",
      "Creating imgFramesAB/frame100500.jpg\n",
      "Creating imgFramesAB/frame100502.jpg\n",
      "Creating imgFramesAB/frame100504.jpg\n",
      "Creating imgFramesAB/frame100506.jpg\n",
      "Creating imgFramesAB/frame100508.jpg\n",
      "Creating imgFramesAB/frame100510.jpg\n",
      "Creating imgFramesAB/frame100512.jpg\n",
      "Creating imgFramesAB/frame100514.jpg\n",
      "Creating imgFramesAB/frame100516.jpg\n",
      "Creating imgFramesAB/frame100518.jpg\n",
      "Creating imgFramesAB/frame100520.jpg\n",
      "Creating imgFramesAB/frame100522.jpg\n",
      "Creating imgFramesAB/frame100524.jpg\n",
      "Creating imgFramesAB/frame100526.jpg\n",
      "Creating imgFramesAB/frame100528.jpg\n",
      "Creating imgFramesAB/frame100530.jpg\n",
      "Creating imgFramesAB/frame100532.jpg\n",
      "Creating imgFramesAB/frame100534.jpg\n",
      "Creating imgFramesAB/frame100536.jpg\n",
      "Creating imgFramesAB/frame100538.jpg\n",
      "Creating imgFramesAB/frame100540.jpg\n",
      "Creating imgFramesAB/frame100542.jpg\n",
      "Creating imgFramesAB/frame100544.jpg\n",
      "Creating imgFramesAB/frame100546.jpg\n",
      "Creating imgFramesAB/frame100548.jpg\n",
      "Creating imgFramesAB/frame100550.jpg\n",
      "Creating imgFramesAB/frame100552.jpg\n",
      "Creating imgFramesAB/frame100554.jpg\n",
      "Creating imgFramesAB/frame100001.jpg\n",
      "Creating imgFramesAB/frame100003.jpg\n",
      "Creating imgFramesAB/frame100005.jpg\n",
      "Creating imgFramesAB/frame100007.jpg\n",
      "Creating imgFramesAB/frame100009.jpg\n",
      "Creating imgFramesAB/frame100011.jpg\n",
      "Creating imgFramesAB/frame100013.jpg\n",
      "Creating imgFramesAB/frame100015.jpg\n",
      "Creating imgFramesAB/frame100017.jpg\n",
      "Creating imgFramesAB/frame100019.jpg\n",
      "Creating imgFramesAB/frame100021.jpg\n",
      "Creating imgFramesAB/frame100023.jpg\n",
      "Creating imgFramesAB/frame100025.jpg\n",
      "Creating imgFramesAB/frame100027.jpg\n",
      "Creating imgFramesAB/frame100029.jpg\n",
      "Creating imgFramesAB/frame100031.jpg\n",
      "Creating imgFramesAB/frame100033.jpg\n",
      "Creating imgFramesAB/frame100035.jpg\n",
      "Creating imgFramesAB/frame100037.jpg\n",
      "Creating imgFramesAB/frame100039.jpg\n",
      "Creating imgFramesAB/frame100041.jpg\n",
      "Creating imgFramesAB/frame100043.jpg\n",
      "Creating imgFramesAB/frame100045.jpg\n",
      "Creating imgFramesAB/frame100047.jpg\n",
      "Creating imgFramesAB/frame100049.jpg\n",
      "Creating imgFramesAB/frame100051.jpg\n",
      "Creating imgFramesAB/frame100053.jpg\n",
      "Creating imgFramesAB/frame100055.jpg\n",
      "Creating imgFramesAB/frame100057.jpg\n",
      "Creating imgFramesAB/frame100059.jpg\n",
      "Creating imgFramesAB/frame100061.jpg\n",
      "Creating imgFramesAB/frame100063.jpg\n",
      "Creating imgFramesAB/frame100065.jpg\n",
      "Creating imgFramesAB/frame100067.jpg\n",
      "Creating imgFramesAB/frame100069.jpg\n",
      "Creating imgFramesAB/frame100071.jpg\n",
      "Creating imgFramesAB/frame100073.jpg\n",
      "Creating imgFramesAB/frame100075.jpg\n",
      "Creating imgFramesAB/frame100077.jpg\n",
      "Creating imgFramesAB/frame100079.jpg\n",
      "Creating imgFramesAB/frame100081.jpg\n",
      "Creating imgFramesAB/frame100083.jpg\n",
      "Creating imgFramesAB/frame100085.jpg\n",
      "Creating imgFramesAB/frame100087.jpg\n",
      "Creating imgFramesAB/frame100089.jpg\n",
      "Creating imgFramesAB/frame100091.jpg\n",
      "Creating imgFramesAB/frame100093.jpg\n",
      "Creating imgFramesAB/frame100095.jpg\n",
      "Creating imgFramesAB/frame100097.jpg\n",
      "Creating imgFramesAB/frame100099.jpg\n",
      "Creating imgFramesAB/frame100101.jpg\n",
      "Creating imgFramesAB/frame100103.jpg\n",
      "Creating imgFramesAB/frame100105.jpg\n",
      "Creating imgFramesAB/frame100107.jpg\n",
      "Creating imgFramesAB/frame100109.jpg\n",
      "Creating imgFramesAB/frame100111.jpg\n",
      "Creating imgFramesAB/frame100113.jpg\n",
      "Creating imgFramesAB/frame100115.jpg\n",
      "Creating imgFramesAB/frame100117.jpg\n",
      "Creating imgFramesAB/frame100119.jpg\n",
      "Creating imgFramesAB/frame100121.jpg\n",
      "Creating imgFramesAB/frame100123.jpg\n",
      "Creating imgFramesAB/frame100125.jpg\n",
      "Creating imgFramesAB/frame100127.jpg\n",
      "Creating imgFramesAB/frame100129.jpg\n",
      "Creating imgFramesAB/frame100131.jpg\n",
      "Creating imgFramesAB/frame100133.jpg\n",
      "Creating imgFramesAB/frame100135.jpg\n",
      "Creating imgFramesAB/frame100137.jpg\n",
      "Creating imgFramesAB/frame100139.jpg\n",
      "Creating imgFramesAB/frame100141.jpg\n",
      "Creating imgFramesAB/frame100143.jpg\n",
      "Creating imgFramesAB/frame100145.jpg\n",
      "Creating imgFramesAB/frame100147.jpg\n",
      "Creating imgFramesAB/frame100149.jpg\n",
      "Creating imgFramesAB/frame100151.jpg\n",
      "Creating imgFramesAB/frame100153.jpg\n",
      "Creating imgFramesAB/frame100155.jpg\n",
      "Creating imgFramesAB/frame100157.jpg\n",
      "Creating imgFramesAB/frame100159.jpg\n",
      "Creating imgFramesAB/frame100161.jpg\n",
      "Creating imgFramesAB/frame100163.jpg\n",
      "Creating imgFramesAB/frame100165.jpg\n",
      "Creating imgFramesAB/frame100167.jpg\n",
      "Creating imgFramesAB/frame100169.jpg\n",
      "Creating imgFramesAB/frame100171.jpg\n",
      "Creating imgFramesAB/frame100173.jpg\n",
      "Creating imgFramesAB/frame100175.jpg\n",
      "Creating imgFramesAB/frame100177.jpg\n",
      "Creating imgFramesAB/frame100179.jpg\n",
      "Creating imgFramesAB/frame100181.jpg\n",
      "Creating imgFramesAB/frame100183.jpg\n",
      "Creating imgFramesAB/frame100185.jpg\n",
      "Creating imgFramesAB/frame100187.jpg\n",
      "Creating imgFramesAB/frame100189.jpg\n",
      "Creating imgFramesAB/frame100191.jpg\n",
      "Creating imgFramesAB/frame100193.jpg\n",
      "Creating imgFramesAB/frame100195.jpg\n",
      "Creating imgFramesAB/frame100197.jpg\n",
      "Creating imgFramesAB/frame100199.jpg\n",
      "Creating imgFramesAB/frame100201.jpg\n",
      "Creating imgFramesAB/frame100203.jpg\n",
      "Creating imgFramesAB/frame100205.jpg\n",
      "Creating imgFramesAB/frame100207.jpg\n",
      "Creating imgFramesAB/frame100209.jpg\n",
      "Creating imgFramesAB/frame100211.jpg\n",
      "Creating imgFramesAB/frame100213.jpg\n",
      "Creating imgFramesAB/frame100215.jpg\n",
      "Creating imgFramesAB/frame100217.jpg\n",
      "Creating imgFramesAB/frame100219.jpg\n",
      "Creating imgFramesAB/frame100221.jpg\n",
      "Creating imgFramesAB/frame100223.jpg\n",
      "Creating imgFramesAB/frame100225.jpg\n",
      "Creating imgFramesAB/frame100227.jpg\n",
      "Creating imgFramesAB/frame100229.jpg\n",
      "Creating imgFramesAB/frame100231.jpg\n",
      "Creating imgFramesAB/frame100233.jpg\n",
      "Creating imgFramesAB/frame100235.jpg\n",
      "Creating imgFramesAB/frame100237.jpg\n",
      "Creating imgFramesAB/frame100239.jpg\n",
      "Creating imgFramesAB/frame100241.jpg\n",
      "Creating imgFramesAB/frame100243.jpg\n",
      "Creating imgFramesAB/frame100245.jpg\n",
      "Creating imgFramesAB/frame100247.jpg\n",
      "Creating imgFramesAB/frame100249.jpg\n",
      "Creating imgFramesAB/frame100251.jpg\n",
      "Creating imgFramesAB/frame100253.jpg\n",
      "Creating imgFramesAB/frame100255.jpg\n",
      "Creating imgFramesAB/frame100257.jpg\n",
      "Creating imgFramesAB/frame100259.jpg\n",
      "Creating imgFramesAB/frame100261.jpg\n",
      "Creating imgFramesAB/frame100263.jpg\n",
      "Creating imgFramesAB/frame100265.jpg\n",
      "Creating imgFramesAB/frame100267.jpg\n",
      "Creating imgFramesAB/frame100269.jpg\n",
      "Creating imgFramesAB/frame100271.jpg\n",
      "Creating imgFramesAB/frame100273.jpg\n",
      "Creating imgFramesAB/frame100275.jpg\n",
      "Creating imgFramesAB/frame100277.jpg\n",
      "Creating imgFramesAB/frame100279.jpg\n",
      "Creating imgFramesAB/frame100281.jpg\n",
      "Creating imgFramesAB/frame100283.jpg\n",
      "Creating imgFramesAB/frame100285.jpg\n",
      "Creating imgFramesAB/frame100287.jpg\n",
      "Creating imgFramesAB/frame100289.jpg\n",
      "Creating imgFramesAB/frame100291.jpg\n",
      "Creating imgFramesAB/frame100293.jpg\n",
      "Creating imgFramesAB/frame100295.jpg\n",
      "Creating imgFramesAB/frame100297.jpg\n",
      "Creating imgFramesAB/frame100299.jpg\n",
      "Creating imgFramesAB/frame100301.jpg\n",
      "Creating imgFramesAB/frame100303.jpg\n",
      "Creating imgFramesAB/frame100305.jpg\n",
      "Creating imgFramesAB/frame100307.jpg\n",
      "Creating imgFramesAB/frame100309.jpg\n",
      "Creating imgFramesAB/frame100311.jpg\n",
      "Creating imgFramesAB/frame100313.jpg\n",
      "Creating imgFramesAB/frame100315.jpg\n",
      "Creating imgFramesAB/frame100317.jpg\n",
      "Creating imgFramesAB/frame100319.jpg\n",
      "Creating imgFramesAB/frame100321.jpg\n",
      "Creating imgFramesAB/frame100323.jpg\n",
      "Creating imgFramesAB/frame100325.jpg\n",
      "Creating imgFramesAB/frame100327.jpg\n",
      "Creating imgFramesAB/frame100329.jpg\n",
      "Creating imgFramesAB/frame100331.jpg\n",
      "Creating imgFramesAB/frame100333.jpg\n"
     ]
    },
    {
     "name": "stdout",
     "output_type": "stream",
     "text": [
      "Creating imgFramesAB/frame100335.jpg\n",
      "Creating imgFramesAB/frame100337.jpg\n",
      "Creating imgFramesAB/frame100339.jpg\n",
      "Creating imgFramesAB/frame100341.jpg\n",
      "Creating imgFramesAB/frame100343.jpg\n",
      "Creating imgFramesAB/frame100345.jpg\n",
      "Creating imgFramesAB/frame100347.jpg\n",
      "Creating imgFramesAB/frame100349.jpg\n",
      "Creating imgFramesAB/frame100351.jpg\n",
      "Creating imgFramesAB/frame100353.jpg\n",
      "Creating imgFramesAB/frame100355.jpg\n",
      "Creating imgFramesAB/frame100357.jpg\n",
      "Creating imgFramesAB/frame100359.jpg\n",
      "Creating imgFramesAB/frame100361.jpg\n",
      "Creating imgFramesAB/frame100363.jpg\n",
      "Creating imgFramesAB/frame100365.jpg\n",
      "Creating imgFramesAB/frame100367.jpg\n",
      "Creating imgFramesAB/frame100369.jpg\n",
      "Creating imgFramesAB/frame100371.jpg\n",
      "Creating imgFramesAB/frame100373.jpg\n",
      "Creating imgFramesAB/frame100375.jpg\n",
      "Creating imgFramesAB/frame100377.jpg\n",
      "Creating imgFramesAB/frame100379.jpg\n",
      "Creating imgFramesAB/frame100381.jpg\n",
      "Creating imgFramesAB/frame100383.jpg\n",
      "Creating imgFramesAB/frame100385.jpg\n",
      "Creating imgFramesAB/frame100387.jpg\n",
      "Creating imgFramesAB/frame100389.jpg\n",
      "Creating imgFramesAB/frame100391.jpg\n",
      "Creating imgFramesAB/frame100393.jpg\n",
      "Creating imgFramesAB/frame100395.jpg\n",
      "Creating imgFramesAB/frame100397.jpg\n",
      "Creating imgFramesAB/frame100399.jpg\n",
      "Creating imgFramesAB/frame100401.jpg\n",
      "Creating imgFramesAB/frame100403.jpg\n",
      "Creating imgFramesAB/frame100405.jpg\n",
      "Creating imgFramesAB/frame100407.jpg\n",
      "Creating imgFramesAB/frame100409.jpg\n",
      "Creating imgFramesAB/frame100411.jpg\n",
      "Creating imgFramesAB/frame100413.jpg\n",
      "Creating imgFramesAB/frame100415.jpg\n",
      "Creating imgFramesAB/frame100417.jpg\n",
      "Creating imgFramesAB/frame100419.jpg\n",
      "Creating imgFramesAB/frame100421.jpg\n",
      "Creating imgFramesAB/frame100423.jpg\n",
      "Creating imgFramesAB/frame100425.jpg\n",
      "Creating imgFramesAB/frame100427.jpg\n",
      "Creating imgFramesAB/frame100429.jpg\n",
      "Creating imgFramesAB/frame100431.jpg\n",
      "Creating imgFramesAB/frame100433.jpg\n",
      "Creating imgFramesAB/frame100435.jpg\n",
      "Creating imgFramesAB/frame100437.jpg\n",
      "Creating imgFramesAB/frame100439.jpg\n",
      "Creating imgFramesAB/frame100441.jpg\n",
      "Creating imgFramesAB/frame100443.jpg\n",
      "Creating imgFramesAB/frame100445.jpg\n",
      "Creating imgFramesAB/frame100447.jpg\n",
      "Creating imgFramesAB/frame100449.jpg\n",
      "Creating imgFramesAB/frame100451.jpg\n",
      "Creating imgFramesAB/frame100453.jpg\n",
      "Creating imgFramesAB/frame100455.jpg\n",
      "Creating imgFramesAB/frame100457.jpg\n",
      "Creating imgFramesAB/frame100459.jpg\n",
      "Creating imgFramesAB/frame100461.jpg\n",
      "Creating imgFramesAB/frame100463.jpg\n",
      "Creating imgFramesAB/frame100465.jpg\n",
      "Creating imgFramesAB/frame100467.jpg\n",
      "Creating imgFramesAB/frame100469.jpg\n",
      "Creating imgFramesAB/frame100471.jpg\n",
      "Creating imgFramesAB/frame100473.jpg\n",
      "Creating imgFramesAB/frame100475.jpg\n",
      "Creating imgFramesAB/frame100477.jpg\n",
      "Creating imgFramesAB/frame100479.jpg\n",
      "Creating imgFramesAB/frame100481.jpg\n",
      "Creating imgFramesAB/frame100483.jpg\n",
      "Creating imgFramesAB/frame100485.jpg\n",
      "Creating imgFramesAB/frame100487.jpg\n",
      "Creating imgFramesAB/frame100489.jpg\n",
      "Creating imgFramesAB/frame100491.jpg\n",
      "Creating imgFramesAB/frame100493.jpg\n",
      "Creating imgFramesAB/frame100495.jpg\n",
      "Creating imgFramesAB/frame100497.jpg\n",
      "Creating imgFramesAB/frame100499.jpg\n",
      "Creating imgFramesAB/frame100501.jpg\n",
      "Creating imgFramesAB/frame100503.jpg\n",
      "Creating imgFramesAB/frame100505.jpg\n",
      "Creating imgFramesAB/frame100507.jpg\n",
      "Creating imgFramesAB/frame100509.jpg\n",
      "Creating imgFramesAB/frame100511.jpg\n",
      "Creating imgFramesAB/frame100513.jpg\n",
      "Creating imgFramesAB/frame100515.jpg\n",
      "Creating imgFramesAB/frame100517.jpg\n",
      "Creating imgFramesAB/frame100519.jpg\n",
      "Creating imgFramesAB/frame100521.jpg\n",
      "Creating imgFramesAB/frame100523.jpg\n",
      "Creating imgFramesAB/frame100525.jpg\n",
      "Creating imgFramesAB/frame100527.jpg\n",
      "Creating imgFramesAB/frame100529.jpg\n",
      "Creating imgFramesAB/frame100531.jpg\n",
      "Creating imgFramesAB/frame100533.jpg\n",
      "Creating imgFramesAB/frame100535.jpg\n",
      "Creating imgFramesAB/frame100537.jpg\n",
      "Creating imgFramesAB/frame100539.jpg\n",
      "Creating imgFramesAB/frame100541.jpg\n",
      "Creating imgFramesAB/frame100543.jpg\n",
      "Creating imgFramesAB/frame100545.jpg\n",
      "Creating imgFramesAB/frame100547.jpg\n",
      "Creating imgFramesAB/frame100549.jpg\n",
      "Creating imgFramesAB/frame100551.jpg\n",
      "Creating imgFramesAB/frame100553.jpg\n",
      "Creating imgFramesAB/frame100555.jpg\n"
     ]
    }
   ],
   "source": [
    "import cv2\n",
    "import numpy as np\n",
    "import os\n",
    "\n",
    "# set video file path of input video with name and extension\n",
    "\n",
    "imgDirName = 'imgFrames'+fName1+fName2\n",
    "\n",
    "\n",
    "if not os.path.exists(imgDirName):\n",
    "    os.makedirs(imgDirName)\n",
    "\n",
    "#---------------------------------------------------------    \n",
    "\n",
    "vid = cv2.VideoCapture(fName1+'.mp4')\n",
    "\n",
    "#for frame identity\n",
    "index = 0\n",
    "while(True):\n",
    "    # Extract images\n",
    "    ret, frame = vid.read()\n",
    "    # end of frames\n",
    "    if not ret: \n",
    "        break\n",
    "    # Saves images\n",
    "    name = imgDirName+'/frame' + str(100000+index) + '.jpg'\n",
    "    print ('Creating ' + name)\n",
    "    cv2.imwrite(name, frame)\n",
    "\n",
    "    # next frame\n",
    "    index += 2\n",
    "    \n",
    "#---------------------------------------------------------    \n",
    "    \n",
    "vid = cv2.VideoCapture(fName2+'.mp4')\n",
    "\n",
    "index = 1\n",
    "while(True):\n",
    "    # Extract images\n",
    "    ret, frame = vid.read()\n",
    "    # end of frames\n",
    "    if not ret: \n",
    "        break\n",
    "    # Saves images\n",
    "    name = imgDirName+'/frame' + str(100000+index) + '.jpg'\n",
    "    print ('Creating ' + name)\n",
    "    cv2.imwrite(name, frame)\n",
    "\n",
    "    # next frame\n",
    "    index += 2"
   ]
  },
  {
   "cell_type": "raw",
   "metadata": {},
   "source": [
    "!ffmpeg -framerate 120 -pattern_type glob -i 'imgFramesCD/frame*.jpg' 'fusion-60fps.mp4'"
   ]
  },
  {
   "cell_type": "code",
   "execution_count": 12,
   "metadata": {},
   "outputs": [
    {
     "name": "stderr",
     "output_type": "stream",
     "text": [
      "ffmpeg version 7.0.1 Copyright (c) 2000-2024 the FFmpeg developers\n",
      "  built with Apple clang version 15.0.0 (clang-1500.3.9.4)\n",
      "  configuration: --prefix=/opt/homebrew/Cellar/ffmpeg/7.0.1 --enable-shared --enable-pthreads --enable-version3 --cc=clang --host-cflags= --host-ldflags='-Wl,-ld_classic' --enable-ffplay --enable-gnutls --enable-gpl --enable-libaom --enable-libaribb24 --enable-libbluray --enable-libdav1d --enable-libharfbuzz --enable-libjxl --enable-libmp3lame --enable-libopus --enable-librav1e --enable-librist --enable-librubberband --enable-libsnappy --enable-libsrt --enable-libssh --enable-libsvtav1 --enable-libtesseract --enable-libtheora --enable-libvidstab --enable-libvmaf --enable-libvorbis --enable-libvpx --enable-libwebp --enable-libx264 --enable-libx265 --enable-libxml2 --enable-libxvid --enable-lzma --enable-libfontconfig --enable-libfreetype --enable-frei0r --enable-libass --enable-libopencore-amrnb --enable-libopencore-amrwb --enable-libopenjpeg --enable-libspeex --enable-libsoxr --enable-libzmq --enable-libzimg --disable-libjack --disable-indev=jack --enable-videotoolbox --enable-audiotoolbox --enable-neon\n",
      "  libavutil      59.  8.100 / 59.  8.100\n",
      "  libavcodec     61.  3.100 / 61.  3.100\n",
      "  libavformat    61.  1.100 / 61.  1.100\n",
      "  libavdevice    61.  1.100 / 61.  1.100\n",
      "  libavfilter    10.  1.100 / 10.  1.100\n",
      "  libswscale      8.  1.100 /  8.  1.100\n",
      "  libswresample   5.  1.100 /  5.  1.100\n",
      "  libpostproc    58.  1.100 / 58.  1.100\n",
      "Input #0, image2, from 'imgFramesAB/frame1%05d.jpg':\n",
      "  Duration: 00:00:09.27, start: 0.000000, bitrate: N/A\n",
      "  Stream #0:0: Video: mjpeg (Baseline), yuvj420p(pc, bt470bg/unknown/unknown), 656x1232 [SAR 1:1 DAR 41:77], 60 fps, 60 tbr, 60 tbn\n",
      "Stream mapping:\n",
      "  Stream #0:0 -> #0:0 (mjpeg (native) -> h264 (libx264))\n",
      "Press [q] to stop, [?] for help\n",
      "[swscaler @ 0x120048000] deprecated pixel format used, make sure you did set range correctly\n",
      "    Last message repeated 1 times\n",
      "[swscaler @ 0x138008000] deprecated pixel format used, make sure you did set range correctly\n",
      "[swscaler @ 0x120620000] deprecated pixel format used, make sure you did set range correctly\n",
      "[libx264 @ 0x12fe08460] using SAR=1/1\n",
      "[libx264 @ 0x12fe08460] using cpu capabilities: ARMv8 NEON\n",
      "[libx264 @ 0x12fe08460] profile High, level 3.2, 4:2:0, 8-bit\n",
      "[libx264 @ 0x12fe08460] 264 - core 164 r3108 31e19f9 - H.264/MPEG-4 AVC codec - Copyleft 2003-2023 - http://www.videolan.org/x264.html - options: cabac=1 ref=3 deblock=1:0:0 analyse=0x3:0x113 me=hex subme=7 psy=1 psy_rd=1.00:0.00 mixed_ref=1 me_range=16 chroma_me=1 trellis=1 8x8dct=1 cqm=0 deadzone=21,11 fast_pskip=1 chroma_qp_offset=-2 threads=15 lookahead_threads=2 sliced_threads=0 nr=0 decimate=1 interlaced=0 bluray_compat=0 constrained_intra=0 bframes=3 b_pyramid=2 b_adapt=1 b_bias=0 direct=1 weightb=1 open_gop=0 weightp=2 keyint=250 keyint_min=25 scenecut=40 intra_refresh=0 rc_lookahead=40 rc=crf mbtree=1 crf=23.0 qcomp=0.60 qpmin=0 qpmax=69 qpstep=4 ip_ratio=1.40 aq=1:1.00\n",
      "Output #0, mp4, to 'imgFramesAB.mp4':\n",
      "  Metadata:\n",
      "    encoder         : Lavf61.1.100\n",
      "  Stream #0:0: Video: h264 (avc1 / 0x31637661), yuv420p(progressive), 656x1232 [SAR 1:1 DAR 41:77], q=2-31, 60 fps, 15360 tbn\n",
      "      Metadata:\n",
      "        encoder         : Lavc61.3.100 libx264\n",
      "      Side data:\n",
      "        cpb: bitrate max/min/avg: 0/0/0 buffer size: 0 vbv_delay: N/A\n",
      "[out#0/mp4 @ 0x600001a74540] video:3896KiB audio:0KiB subtitle:0KiB other streams:0KiB global headers:0KiB muxing overhead: 0.093348%\n",
      "frame=  556 fps=162 q=-1.0 Lsize=    3900KiB time=00:00:09.23 bitrate=3459.7kbits/s speed=2.68x    \n",
      "[libx264 @ 0x12fe08460] frame I:3     Avg QP:26.07  size: 21192\n",
      "[libx264 @ 0x12fe08460] frame P:521   Avg QP:28.25  size:  6505\n",
      "[libx264 @ 0x12fe08460] frame B:32    Avg QP:28.63  size: 16758\n",
      "[libx264 @ 0x12fe08460] consecutive B-frames: 88.5% 11.5%  0.0%  0.0%\n",
      "[libx264 @ 0x12fe08460] mb I  I16..4: 31.4% 55.3% 13.2%\n",
      "[libx264 @ 0x12fe08460] mb P  I16..4:  8.3% 14.2%  0.6%  P16..4: 70.0%  1.3%  3.2%  0.0%  0.0%    skip: 2.4%\n",
      "[libx264 @ 0x12fe08460] mb B  I16..4: 29.0% 44.0%  8.2%  B16..8:  4.0%  0.4%  0.0%  direct: 1.2%  skip:13.2%  L0:93.3% L1: 6.6% BI: 0.0%\n",
      "[libx264 @ 0x12fe08460] 8x8 transform intra:60.0% inter:95.3%\n",
      "[libx264 @ 0x12fe08460] coded y,uvDC,uvAC intra: 28.7% 36.9% 1.5% inter: 14.4% 15.3% 0.0%\n",
      "[libx264 @ 0x12fe08460] i16 v,h,dc,p: 21% 35% 13% 31%\n",
      "[libx264 @ 0x12fe08460] i8 v,h,dc,ddl,ddr,vr,hd,vl,hu: 19% 17% 31%  3%  8%  9%  6%  4%  5%\n",
      "[libx264 @ 0x12fe08460] i4 v,h,dc,ddl,ddr,vr,hd,vl,hu: 20% 28% 13%  3%  9% 11%  8%  3%  5%\n",
      "[libx264 @ 0x12fe08460] i8c dc,h,v,p: 61% 23% 14%  3%\n",
      "[libx264 @ 0x12fe08460] Weighted P-Frames: Y:2.5% UV:2.5%\n",
      "[libx264 @ 0x12fe08460] ref P L0:  3.2%  0.7% 93.9%  2.3%\n",
      "[libx264 @ 0x12fe08460] ref B L0:  4.5% 95.5%\n",
      "[libx264 @ 0x12fe08460] kb/s:3443.49\n"
     ]
    },
    {
     "data": {
      "text/plain": [
       "CompletedProcess(args=['ffmpeg', '-framerate', '60', '-i', 'imgFramesAB/frame1%05d.jpg', '-c:v', 'libx264', '-pix_fmt', 'yuv420p', 'imgFramesAB.mp4'], returncode=0)"
      ]
     },
     "execution_count": 12,
     "metadata": {},
     "output_type": "execute_result"
    }
   ],
   "source": [
    "import subprocess\n",
    "\n",
    "output_video = imgDirName+'.mp4'\n",
    "\n",
    "command = [\n",
    "    'ffmpeg',\n",
    "    '-framerate', '60',  # Set your desired frame rate\n",
    "    '-i', f'{imgDirName}/frame1%05d.jpg',  # Pattern for frame names\n",
    "    '-c:v', 'libx264',  # Use H.264 codec\n",
    "    '-pix_fmt', 'yuv420p',  # Set pixel format\n",
    "    output_video\n",
    "]\n",
    "\n",
    "subprocess.run(command, check=True)"
   ]
  }
 ],
 "metadata": {
  "accelerator": "GPU",
  "colab": {
   "collapsed_sections": [],
   "name": "style_transfer.ipynb",
   "toc_visible": true
  },
  "kernelspec": {
   "display_name": "Python 3 (ipykernel)",
   "language": "python",
   "name": "python3"
  },
  "language_info": {
   "codemirror_mode": {
    "name": "ipython",
    "version": 3
   },
   "file_extension": ".py",
   "mimetype": "text/x-python",
   "name": "python",
   "nbconvert_exporter": "python",
   "pygments_lexer": "ipython3",
   "version": "3.9.19"
  }
 },
 "nbformat": 4,
 "nbformat_minor": 1
}
